<svg width="23" height="23" viewBox="0 0 23 23" fill="none" xmlns="http://www.w3.org/2000/svg">
<path d="M22 11.5C22 5.70127 17.2987 1 11.5 1C5.70127 1 1 5.70127 1 11.5C1 17.2987 5.70127 22 11.5 22C17.2987 22 22 17.2987 22 11.5Z" stroke="#CDA274" stroke-width="2" stroke-miterlimit="10"/>
<path d="M21.4475 7.33099C20.6349 7.33608 20.7148 8.84396 19.7025 8.13251C19.3265 7.8689 19.0953 7.4857 18.6233 7.36916C18.2109 7.26738 17.7885 7.37323 17.3812 7.44397C16.9183 7.52437 16.3693 7.56051 16.0182 7.91318C15.6787 8.25262 15.4991 8.70808 15.1379 9.04956C14.4392 9.71113 14.1442 10.4333 14.5965 11.3686C15.0316 12.2679 15.9418 12.7559 16.9238 12.6918C17.8887 12.6272 18.8909 12.0643 18.8631 13.4745C18.853 13.9732 18.9567 14.3193 19.109 14.7829C19.2501 15.2103 19.2405 15.6246 19.2729 16.0658C19.3326 16.8902 19.4834 17.8144 19.8902 18.5426L20.6491 17.4658C20.7427 17.3325 20.9385 17.1457 20.985 16.9885C21.0675 16.7101 20.9051 16.2317 20.8864 15.9198C20.8676 15.6078 20.8767 15.2918 20.8292 14.9798C20.7624 14.5427 20.5054 14.133 20.47 13.7009C20.4047 12.8964 20.5509 12.2541 19.9347 11.5814C19.3397 10.9325 18.4675 10.7768 17.6342 10.9086C17.2142 10.9747 15.5239 11.2465 16.2024 10.2811C16.3364 10.0913 16.5707 9.93556 16.7215 9.7549C16.8525 9.59765 16.9663 9.30859 17.1201 9.18594C17.2739 9.0633 17.9802 8.92233 18.1826 8.98493C18.385 9.04752 18.596 9.34116 18.7715 9.47144C19.0959 9.71719 19.4744 9.88059 19.875 9.94777C20.5661 10.0496 22.0111 9.64549 21.9999 8.75389C21.9979 8.32641 21.6033 7.73099 21.4475 7.33099V7.33099ZM13.4475 14.6673C13.1778 13.5254 11.6352 13.1437 10.8035 12.5244C10.3254 12.1681 9.89986 11.618 9.27199 11.5732C8.98259 11.5523 8.74024 11.6155 8.45337 11.5406C8.19029 11.4724 7.98386 11.33 7.70357 11.3671C7.17992 11.4363 6.84954 11.9992 6.28694 11.9228C5.75317 11.8506 5.20321 11.2226 5.08179 10.7111C4.92596 10.0536 5.44303 9.8404 5.99703 9.78187C6.22825 9.75744 6.48779 9.73098 6.7099 9.81597C7.00234 9.92538 7.14046 10.2134 7.40304 10.359C7.89532 10.6302 7.99499 10.1966 7.91961 9.75693C7.80678 9.09841 7.67524 8.82971 8.25909 8.37679C8.66385 8.06432 9.00991 7.83837 8.94515 7.27705C8.9067 6.94728 8.72709 6.79817 8.89455 6.46993C9.02155 6.22005 9.37014 5.99461 9.59731 5.8455C10.1837 5.46077 12.1093 5.48927 11.3226 4.41243C11.0913 4.0964 10.6648 3.53152 10.2601 3.45416C9.75415 3.35798 9.52951 3.92592 9.17687 4.1763C8.81259 4.43533 8.10326 4.72948 7.73848 4.32897C7.24772 3.79004 8.0638 3.61294 8.24442 3.23686C8.42504 2.86078 7.82601 2.14984 7.50524 1.96969L5.99703 3.67096C5.95371 3.95587 5.96879 4.24669 6.04135 4.52552C6.11392 4.80435 6.24243 5.0653 6.41899 5.29232C6.71901 5.68062 7.19662 5.8053 7.21837 6.33558C7.23962 6.84448 7.1607 7.10504 6.82981 7.4628C6.68663 7.61547 6.58544 7.83226 6.43973 7.97526C6.26113 8.14982 6.32741 8.09638 6.04864 8.14422C5.52448 8.23328 5.07824 8.37068 4.5718 8.51114C3.72789 8.74574 3.64997 7.35898 3.26546 6.81496L2.00061 7.84244C1.98695 8.01089 2.20804 8.32081 2.26825 8.50401C2.61381 9.55083 3.31099 10.3605 3.76128 11.362C4.23535 12.4226 5.50829 12.1284 6.07039 13.0577C6.56925 13.8821 6.0365 14.9259 6.40988 15.789C6.68106 16.4154 7.32057 16.5523 7.76175 17.0103C8.21255 17.4729 8.20293 18.106 8.27174 18.708C8.34934 19.4162 8.47528 20.1181 8.64867 20.8088C8.70989 21.0475 8.76605 21.363 8.92845 21.5599C9.03976 21.6953 9.42174 21.8118 9.26743 21.8566C9.48296 21.8923 9.86697 22.0948 10.0466 21.9462C10.2834 21.7508 10.2201 21.1493 10.2611 20.8775C10.384 20.0683 10.7868 19.277 11.3302 18.6714C11.867 18.0739 12.6026 17.6694 13.0559 16.992C13.4976 16.3315 13.6307 15.4404 13.4475 14.6673V14.6673ZM11.7582 16.0068C11.4546 16.5518 10.7787 16.9167 10.3441 17.3498C10.2262 17.4673 9.97524 17.8745 9.82751 17.7864C9.72177 17.7233 9.68585 17.1951 9.64689 17.074C9.44591 16.464 9.06223 15.9316 8.54849 15.5498C8.39013 15.4292 7.99752 15.2724 7.90696 15.107C7.80577 14.9274 7.89684 14.5035 7.90038 14.3081C7.90595 14.0231 7.77693 13.5493 7.84675 13.2903C7.9277 12.9915 7.77187 13.1717 8.03749 13.1126C8.17764 13.0811 8.75643 13.1834 8.93098 13.22C9.20824 13.278 9.36103 13.4516 9.5796 13.6271C10.1543 14.0908 10.7873 14.4495 11.4313 14.8047C11.9302 15.0826 12.0769 15.4343 11.7582 16.0068ZM8.23683 1.98496C8.47665 2.22058 8.7023 2.49946 9.06 2.52287C9.39847 2.54577 9.71772 2.36155 10.0132 2.5931C10.341 2.84755 10.5773 3.16969 11.0124 3.24907C11.4334 3.32592 11.8791 3.07859 11.9833 2.64552C12.0845 2.23279 11.8665 1.78394 11.8533 1.36969C11.8533 1.31219 11.8842 1.05672 11.8447 1.01346C11.8154 0.980891 11.5705 1.01753 11.533 1.01855C11.2588 1.02669 10.9853 1.04569 10.7124 1.07555C9.71763 1.18385 8.74342 1.43491 7.81943 1.82109C7.94237 1.90659 8.09669 1.94068 8.23683 1.98496V1.98496ZM16.936 4.84398C17.3655 4.84398 17.8016 4.6506 17.663 4.15085C17.5466 3.73202 17.3483 3.27757 16.8657 3.50353C16.5585 3.64704 16.1234 4.01243 16.0875 4.37477C16.0465 4.78596 16.6496 4.84398 16.936 4.84398ZM16.5929 7.03074C17.0316 7.29486 17.6822 7.17069 18.0131 6.79359C18.2717 6.49842 18.4239 5.98596 18.8889 5.98647C19.0936 5.98604 19.2903 6.06666 19.4363 6.21089C19.6286 6.41089 19.5906 6.59868 19.6316 6.84906C19.7232 7.4114 20.3227 6.88112 20.4791 6.66331C20.5803 6.52133 20.7174 6.31064 20.6713 6.12591C20.6288 5.95339 20.4285 5.76968 20.3394 5.61141C20.0794 5.15339 19.8654 4.62057 19.4758 4.2506C19.1009 3.89436 18.64 3.93559 18.2843 4.30556C17.9929 4.6109 17.6544 4.85263 17.4551 5.22413C17.3144 5.4852 17.1561 5.60988 16.8712 5.67756C16.7144 5.71471 16.5353 5.72845 16.4037 5.83431C16.0374 6.12438 16.2459 6.82107 16.5929 7.03074V7.03074Z" fill="#CDA274"/>
</svg>
